<svg xmlns="http://www.w3.org/2000/svg" width="39.144" height="39.144" viewBox="0 0 39.144 39.144">
  <path id="close" d="M26.031,19.573l12.11-12.11a3.424,3.424,0,0,0,0-4.843L36.526,1.006a3.423,3.423,0,0,0-4.844,0L19.573,13.115,7.464,1A3.424,3.424,0,0,0,2.62,1L1,2.618A3.424,3.424,0,0,0,1,7.461L13.115,19.573,1.006,31.683a3.423,3.423,0,0,0,0,4.844L2.62,38.141a3.424,3.424,0,0,0,4.843,0l12.11-12.11,12.109,12.11a3.424,3.424,0,0,0,4.844,0l1.614-1.614a3.424,3.424,0,0,0,0-4.844Zm0,0" fill="#ff4065"/>
</svg>
