<svg xmlns="http://www.w3.org/2000/svg" width="29.181" height="29.021" viewBox="0 0 29.181 29.021"><path d="M484.358,319.387,469.4,334.346l-5.87-5.859,14.967-14.96Z" transform="translate(-460.5 -308.599)" fill="#21abfc"/><path d="M810.394,213.8c.831-.851,1.665-1.74,2.537-2.59a2.566,2.566,0,0,1,3.532-.009c.948.909,1.894,1.825,2.784,2.79a1.9,1.9,0,0,1-.02,2.738c-.961,1.019-1.983,1.98-2.959,2.946Z" transform="translate(-790.638 -210.505)" fill="#21abfc"/><path d="M404.751,667.169l-2.646.643q-1.88.457-3.76.912c-.663.16-1.062-.234-.914-.9q.714-3.218,1.431-6.436c.008-.036.021-.072.025-.083Z" transform="translate(-397.4 -639.738)" fill="#21abfc"/></svg>