<svg xmlns="http://www.w3.org/2000/svg" width="27.211" height="35.522" viewBox="0 0 27.211 35.522"><g transform="translate(-896.122 -523.094)"><path d="M-7106.789-8347.4v9.536H-7131v-9.536" transform="translate(8028.622 8884.509)" fill="none" stroke="#b1b1b1" stroke-linecap="round" stroke-linejoin="round" stroke-width="3"/><path d="M3.361,19.055a1,1,0,0,1-1-1V10.048H.59a1,1,0,0,1-.712-1.7L8.15-.039a1,1,0,0,1,1.424,0l8.272,8.384a1,1,0,0,1-.712,1.7h-1.77v8.007a1,1,0,0,1-1,1Z" transform="translate(900.66 523.431)" fill="#b1b1b1"/><g transform="translate(905.421 550.601)"><line y2="8.016" transform="translate(4.127 0)" fill="none" stroke="#b1b1b1" stroke-width="2"/><line x1="8.255" transform="translate(0 4.008)" fill="none" stroke="#b1b1b1" stroke-width="2"/></g></g></svg>