<svg xmlns="http://www.w3.org/2000/svg" width="86.252" height="86.252" viewBox="0 0 86.252 86.252"><path d="M-487.3,326.75a43.126,43.126,0,0,0-43.126,43.126A43.126,43.126,0,0,0-487.3,413a43.126,43.126,0,0,0,43.126-43.126A43.126,43.126,0,0,0-487.3,326.75Zm-3.643,19.716a13.44,13.44,0,0,1,13.3,3,14.6,14.6,0,0,1,4.964,8.912,18.421,18.421,0,0,1-.852,9.081,21.119,21.119,0,0,1-6.1,9.314,11.787,11.787,0,0,1-5.282,2.767,10.015,10.015,0,0,1-7.013-1.143,16.509,16.509,0,0,1-6.132-6.069,22.441,22.441,0,0,1-3.174-8.416c-.143-.923-.183-1.862-.271-2.793A15.187,15.187,0,0,1-490.94,346.466Zm4.263,57.7a40.434,40.434,0,0,1-30.812-14.739c.074-.166.143.02.2-.156l.007-.018a11.184,11.184,0,0,1,.648-1.124q.183-.2.378-.39c.035-.021.068-.044.1-.064a4.979,4.979,0,0,0,1.315-1.111l.026.053a2.071,2.071,0,0,0,.17-.138,24.431,24.431,0,0,1,6.133-4.312,80.916,80.916,0,0,1,9.968-4.259.528.528,0,0,1,.415.116c.86.684,1.7,1.391,2.56,2.077a14.134,14.134,0,0,0,11.225,2.772,11.048,11.048,0,0,0,4.683-1.9c1.34-.908,2.584-1.958,3.866-2.951a.443.443,0,0,1,.495-.115,90.178,90.178,0,0,1,9.028,3.8,28.233,28.233,0,0,1,6.235,4.026c.817,1.418,1.75,2.772,2.474,4.24.057.161.113.322.164.486a5.305,5.305,0,0,0,.288.729A40.093,40.093,0,0,1-486.677,404.163Z" transform="translate(530.423 -326.75)" fill="#fff"/></svg>